<svg width="29" height="29" viewBox="0 0 29 29" fill="none" xmlns="http://www.w3.org/2000/svg">
    <path d="M17.7782 1.62776C16.5321 -0.160045 13.9728 -0.38676 12.4319 1.15416L8.30742 5.27864C6.69734 6.88873 7.02905 9.58324 8.98156 10.7547L11.9367 12.5278L1.9901 22.2942C0.662807 23.5974 0.65314 25.733 1.96858 27.0482C3.27542 28.3548 5.39399 28.3546 6.70067 27.0479L16.5519 17.1961L18.296 20.1028C19.4451 22.018 22.0696 22.3815 23.696 20.8508L27.7819 17.0052C29.3592 15.5208 29.2231 12.9746 27.4967 11.6667L21.8565 7.39382C21.7729 7.33053 21.6998 7.2545 21.6399 7.16852L17.7782 1.62776ZM13.8461 2.56838C14.5065 1.90798 15.6034 2.00514 16.1374 2.77135L16.8263 3.75978L10.9704 9.61567L10.0106 9.03976C9.17376 8.53768 9.0316 7.38289 9.72164 6.69286L13.8461 2.56838ZM12.7382 10.6763L17.988 5.42653L19.9991 8.31211C20.1789 8.57006 20.3981 8.79814 20.6487 8.988L23.18 10.9056L18.1363 15.9493L16.6152 13.4141C16.3618 12.9919 16.0084 12.6385 15.5862 12.3851L12.7382 10.6763ZM19.1969 17.7171L24.7893 12.1248L26.2889 13.2609C27.0288 13.8214 27.0872 14.9126 26.4112 15.5488L22.3253 19.3944C21.6283 20.0504 20.5035 19.8946 20.011 19.0738L19.1969 17.7171ZM15.4913 15.4283L5.28642 25.6337C4.76073 26.1594 3.90841 26.1595 3.38266 25.6338C2.85345 25.1047 2.85734 24.2456 3.39132 23.7213L13.7086 13.591L14.5572 14.1001C14.6979 14.1846 14.8157 14.3024 14.9002 14.4431L15.4913 15.4283ZM18 23.9999C17.4477 23.9999 17 24.4476 17 24.9999C17 25.5522 17.4477 25.9999 18 25.9999H16C15.4477 25.9999 15 26.4476 15 26.9999C15 27.5522 15.4477 27.9999 16 27.9999H27.3333C27.8856 27.9999 28.3333 27.5522 28.3333 26.9999C28.3333 26.4476 27.8856 25.9999 27.3333 25.9999H25C25.5523 25.9999 26 25.5522 26 24.9999C26 24.4476 25.5523 23.9999 25 23.9999H18Z" fill="white"/>
</svg>
