<svg width="36" height="36" viewBox="0 0 36 36" fill="none" xmlns="http://www.w3.org/2000/svg">
    <path d="M15 15.5C15 17.9853 12.9853 20 10.5 20C8.01472 20 6 17.9853 6 15.5C6 13.0147 8.01472 11 10.5 11C12.9853 11 15 13.0147 15 15.5ZM12.5 15.5C12.5 14.3954 11.6046 13.5 10.5 13.5C9.39543 13.5 8.5 14.3954 8.5 15.5C8.5 16.6046 9.39543 17.5 10.5 17.5C11.6046 17.5 12.5 16.6046 12.5 15.5ZM10.5 31C12.9853 31 15 28.9853 15 26.5C15 24.0147 12.9853 22 10.5 22C8.01472 22 6 24.0147 6 26.5C6 28.9853 8.01472 31 10.5 31ZM10.5 28.5C9.39543 28.5 8.5 27.6046 8.5 26.5C8.5 25.3954 9.39543 24.5 10.5 24.5C11.6046 24.5 12.5 25.3954 12.5 26.5C12.5 27.6046 11.6046 28.5 10.5 28.5ZM7.25 6C6.55964 6 6 6.55964 6 7.25C6 7.94036 6.55964 8.5 7.25 8.5H28.75C29.4404 8.5 30 7.94036 30 7.25C30 6.55964 29.4404 6 28.75 6H7.25ZM17 15.75C17 15.0596 17.5596 14.5 18.25 14.5H28.75C29.4404 14.5 30 15.0596 30 15.75C30 16.4404 29.4404 17 28.75 17H18.25C17.5596 17 17 16.4404 17 15.75ZM18.25 25C17.5596 25 17 25.5596 17 26.25C17 26.9404 17.5596 27.5 18.25 27.5H28.75C29.4404 27.5 30 26.9404 30 26.25C30 25.5596 29.4404 25 28.75 25H18.25ZM6.25 0C2.79822 0 0 2.79822 0 6.25V29.75C0 33.2018 2.79822 36 6.25 36H29.75C33.2018 36 36 33.2018 36 29.75V6.25C36 2.79822 33.2018 0 29.75 0H6.25ZM2.5 6.25C2.5 4.17893 4.17893 2.5 6.25 2.5H29.75C31.8211 2.5 33.5 4.17893 33.5 6.25V29.75C33.5 31.8211 31.8211 33.5 29.75 33.5H6.25C4.17893 33.5 2.5 31.8211 2.5 29.75V6.25Z" fill="white"/>
</svg>
