<svg width="25" height="22" viewBox="0 0 25 22" fill="none" xmlns="http://www.w3.org/2000/svg">
    <path d="M1.00439 3.25C1.00439 1.45507 2.45947 0 4.25439 0H21.751C23.5459 0 25.001 1.45507 25.001 3.25V16.7501C25.001 18.545 23.5459 20.0001 21.751 20.0001H13.4749L11.9749 18.5001H21.751C22.7175 18.5001 23.501 17.7166 23.501 16.7501V3.25C23.501 2.2835 22.7175 1.5 21.751 1.5H4.25439C3.2879 1.5 2.50439 2.2835 2.50439 3.25V8.72992C1.95348 9.01652 1.44878 9.3797 1.00439 9.80536V3.25ZM10.6238 10.5C10.1624 9.90978 9.60126 9.40133 8.96569 9H19.25C19.6642 9 20 9.33579 20 9.75C20 10.1642 19.6642 10.5 19.25 10.5H10.6238ZM12 14.5H17.25C17.6642 14.5 18 14.1642 18 13.75C18 13.3358 17.6642 13 17.25 13H11.8261C11.9398 13.4815 12 13.9837 12 14.5ZM6 5.75C6 5.33579 6.33579 5 6.75 5H14.25C14.6642 5 15 5.33579 15 5.75C15 6.16421 14.6642 6.5 14.25 6.5H6.75C6.33579 6.5 6 6.16421 6 5.75ZM9.8833 17.8226C10.5841 16.8996 11 15.7484 11 14.5C11 11.4624 8.53757 9 5.5 9C2.46243 9 0 11.4624 0 14.5C0 17.5376 2.46243 20 5.5 20C6.74835 20 7.89957 19.5841 8.82264 18.8833L11.7197 21.7803C12.0126 22.0732 12.4874 22.0732 12.7803 21.7803C13.0732 21.4874 13.0732 21.0126 12.7803 20.7197L9.8833 17.8226ZM9.5 14.5C9.5 16.7091 7.70914 18.5 5.5 18.5C3.29086 18.5 1.5 16.7091 1.5 14.5C1.5 12.2909 3.29086 10.5 5.5 10.5C7.70914 10.5 9.5 12.2909 9.5 14.5Z" fill="white"/>
</svg>
