<svg width="38" height="40" viewBox="0 0 38 40" fill="none" xmlns="http://www.w3.org/2000/svg">
    <path d="M18.9982 0C14.8554 0 11.4971 3.35835 11.4971 7.50109C11.4971 11.218 14.2005 14.3034 17.7482 14.8985V18.9999H10.249C8.1781 18.9999 6.49927 20.6787 6.49927 22.7497V25.1018C2.95242 25.6977 0.25 28.7827 0.25 32.4989C0.25 36.6416 3.60835 40 7.75109 40C11.8938 40 15.2522 36.6416 15.2522 32.4989C15.2522 28.7814 12.5479 25.6955 8.99927 25.1012V22.7497C8.99927 22.0594 9.55881 21.4999 10.249 21.4999H27.7475C28.4378 21.4999 28.9973 22.0594 28.9973 22.7497V25.1018C25.4505 25.6977 22.748 28.7827 22.748 32.4989C22.748 36.6416 26.1064 40 30.2491 40C34.3919 40 37.7502 36.6416 37.7502 32.4989C37.7502 28.7814 35.046 25.6955 31.4973 25.1012V22.7497C31.4973 20.6787 29.8185 18.9999 27.7475 18.9999H20.2482V14.8985C23.796 14.3033 26.4993 11.2179 26.4993 7.50109C26.4993 3.35835 23.1409 0 18.9982 0ZM13.9971 7.50109C13.9971 4.73907 16.2361 2.5 18.9982 2.5C21.7602 2.5 23.9993 4.73907 23.9993 7.50109C23.9993 10.2631 21.7602 12.5022 18.9982 12.5022C16.2361 12.5022 13.9971 10.2631 13.9971 7.50109ZM2.75 32.4989C2.75 29.7369 4.98907 27.4978 7.75109 27.4978C10.5131 27.4978 12.7522 29.7369 12.7522 32.4989C12.7522 35.2609 10.5131 37.5 7.75109 37.5C4.98907 37.5 2.75 35.2609 2.75 32.4989ZM30.2491 27.4978C33.0112 27.4978 35.2502 29.7369 35.2502 32.4989C35.2502 35.2609 33.0112 37.5 30.2491 37.5C27.4871 37.5 25.248 35.2609 25.248 32.4989C25.248 29.7369 27.4871 27.4978 30.2491 27.4978Z" fill="white"/>
</svg>
